<svg version="1.1" id="Layer_1" xmlns="http://www.w3.org/2000/svg" xmlns:xlink="http://www.w3.org/1999/xlink" x="0px" y="0px"
	 width="100%" viewBox="0 0 832 752" enable-background="new 0 0 832 752" xml:space="preserve">
<path fill="#000000" opacity="1.000000" stroke="none" 
	d="
M731.856628,395.446594 
	C731.201172,397.888824 731.049683,400.079712 729.448914,402.078186 
	C726.411133,397.806061 728.572266,391.593781 723.063904,387.390839 
	C719.934509,405.885376 713.778503,422.261627 698.119263,434.625427 
	C698.129639,429.223297 702.025208,425.749390 700.879822,421.298981 
	C698.876038,421.026398 697.888367,422.314697 696.859375,423.298462 
	C681.830444,437.667053 663.238159,444.455872 643.332581,448.282990 
	C620.849915,452.605560 597.963928,451.857483 575.256714,453.376984 
	C561.157654,454.320435 547.090210,455.552917 533.720093,460.800385 
	C526.749573,463.536163 520.698181,467.437408 515.830078,473.152344 
	C515.234558,473.851379 514.807861,474.937592 513.106628,474.659576 
	C514.573303,468.168579 518.564636,463.382172 523.353638,459.344360 
	C534.929810,449.584045 549.020325,445.473602 563.483276,442.744690 
	C584.511230,438.777100 605.703918,435.667236 626.696472,431.532104 
	C646.687744,427.594269 653.895081,416.742737 651.211121,396.377045 
	C649.822998,385.843536 658.128540,376.664337 668.115723,377.694244 
	C676.532959,378.562256 682.345947,386.585022 679.161682,392.868958 
	C677.912170,395.334808 675.934937,396.795532 673.284180,396.886871 
	C670.499695,396.982788 668.629944,395.443420 667.914062,392.737061 
	C668.088013,392.332458 668.138000,391.862854 668.356079,391.763977 
	C670.320557,390.873352 673.732544,390.849457 672.089294,387.400482 
	C670.707397,384.499939 668.002930,383.703613 664.884705,385.263214 
	C660.408142,387.502258 658.369446,392.885925 660.308167,397.537537 
	C664.062012,406.543793 675.409607,409.562927 684.449646,403.362946 
	C694.226929,396.657349 699.900696,386.787170 702.403320,375.420380 
	C708.621521,347.178284 689.960388,321.279724 661.315308,317.184845 
	C649.239868,315.458649 637.840271,317.386963 626.499451,321.061401 
	C624.943970,321.565430 623.514038,322.631226 621.151489,322.099701 
	C622.460632,317.593536 623.966614,313.150146 625.035400,308.604004 
	C629.897949,287.921112 632.284119,267.042206 629.777710,245.783829 
	C629.286255,241.615967 627.140808,238.277878 625.021973,234.920670 
	C621.646423,229.571945 618.043945,224.366943 614.602539,219.058914 
	C612.980591,216.557190 610.969238,214.084610 611.273865,210.893738 
	C611.541016,208.095093 608.960754,208.038010 607.488525,206.418610 
	C614.320984,202.876404 620.972534,203.597672 627.595703,206.270294 
	C635.863525,209.606613 641.824585,215.891006 647.930359,222.094162 
	C653.861267,228.119705 660.263062,233.465988 668.654663,236.214035 
	C686.381409,242.019089 693.130066,256.192780 696.473328,273.186798 
	C698.097168,281.440887 696.117493,289.402405 696.213379,297.505310 
	C696.300415,304.865204 699.260742,310.182281 704.973083,314.465637 
	C710.963440,318.957458 717.653625,322.430359 723.209656,327.572113 
	C732.352173,336.033051 737.995178,346.290009 740.066406,358.544250 
	C740.201904,359.345947 740.392517,360.173798 739.299561,361.025330 
	C735.064087,355.931183 731.795105,349.656281 723.330505,346.925476 
	C731.766663,362.724243 735.974976,378.266479 731.856628,395.446594 
M657.048462,261.553436 
	C653.760193,259.854462 650.939026,257.446808 647.233276,254.328934 
	C649.228210,258.904694 651.319580,261.807770 654.122131,264.256470 
	C663.610291,272.546692 674.073242,280.115509 676.227844,293.984894 
	C677.079712,285.547943 672.412720,279.117035 669.074219,273.356903 
	C669.812439,270.749176 671.597412,273.245239 672.229614,270.895660 
	C668.126282,266.901093 662.582336,264.903595 657.048462,261.553436 
M666.017151,256.442810 
	C666.841370,256.646942 667.798218,256.832336 668.257935,255.987686 
	C669.860901,253.042389 665.603943,245.562500 662.299255,245.471588 
	C660.092407,245.410873 659.288269,246.527115 659.921082,248.640594 
	C660.861511,251.781342 662.922913,254.106812 666.017151,256.442810 
M655.918152,296.459442 
	C658.338318,294.735992 658.601135,298.524536 661.588928,298.720276 
	C657.899841,294.129578 658.168701,289.438934 658.438232,283.901581 
	C657.041504,285.792816 657.961548,287.281128 656.558899,287.923431 
	C654.121521,287.853577 653.992615,284.629639 650.519958,284.027924 
	C654.825317,289.781281 656.096619,295.405426 653.442688,301.474609 
	C654.139893,299.998077 654.837097,298.521545 655.918152,296.459442 
M676.579956,245.698715 
	C675.249084,244.861969 674.225342,243.286331 672.175781,243.877594 
	C671.803528,245.911362 671.988647,247.771118 673.282471,249.397888 
	C677.332764,248.703339 677.332764,248.703339 676.579956,245.698715 
M648.326477,276.484680 
	C647.753479,275.743134 647.631592,274.601471 646.425232,274.367401 
	C645.094604,275.086792 645.095215,276.467499 644.608948,278.333771 
	C647.666809,276.299164 647.749084,279.586273 649.686462,281.201538 
	C649.140869,279.233459 648.838684,278.143311 648.326477,276.484680 
z"/>
<path fill="#000000" opacity="1.000000" stroke="none" 
	d="
M142.601410,437.525330 
	C133.712387,433.199829 126.385582,427.243378 118.849754,420.584930 
	C117.241203,426.070557 120.849792,429.728119 121.865303,435.278809 
	C105.547752,422.708038 99.225098,406.191284 96.122284,387.220123 
	C90.908005,392.031036 91.804474,397.696411 90.267700,402.739624 
	C85.855583,394.002411 85.007919,384.647919 85.929497,375.139709 
	C86.856606,365.574524 90.675575,356.785004 94.752747,347.961823 
	C87.781662,349.797119 84.122925,355.055450 79.723145,360.781830 
	C79.103706,354.585846 80.755997,349.954224 82.701935,345.442993 
	C87.555664,334.190796 95.189682,325.489929 106.302284,319.977448 
	C109.127312,318.576080 111.854805,316.912628 114.434799,315.096405 
	C119.803169,311.317291 122.535507,306.163452 122.812828,299.458191 
	C123.142967,291.476044 121.533562,283.597473 122.513382,275.543152 
	C124.943924,255.563599 134.545151,240.674896 153.405304,234.972839 
	C161.083435,232.651489 167.284531,226.845200 172.809692,220.699692 
	C180.021362,212.678284 187.989655,205.608047 199.360611,204.243118 
	C203.527847,203.742889 207.610229,204.199280 211.407394,206.252869 
	C206.915421,215.511292 201.494370,224.033417 195.641037,232.196152 
	C190.092621,239.933640 188.387787,248.403763 188.321625,257.550537 
	C188.166687,278.967407 190.404190,300.020355 197.668060,320.331299 
	C197.824524,320.768829 197.758957,321.285736 197.849991,322.435059 
	C192.070648,320.860962 186.627472,318.984467 181.029724,317.923523 
	C159.446579,313.832916 139.922638,317.607574 125.621704,335.540955 
	C114.560356,349.411865 112.452751,365.382080 118.740860,382.134003 
	C120.533096,386.908630 123.767677,390.465088 129.367691,390.635223 
	C133.843002,390.771179 137.048996,387.719513 136.872101,383.751312 
	C136.784576,381.787872 135.973160,380.229095 134.285233,379.171051 
	C133.495941,378.676239 132.706146,378.645721 132.009445,379.319641 
	C130.233521,381.037720 133.096893,382.228577 132.482971,383.996552 
	C130.334839,385.970642 128.339447,385.422974 126.760620,383.137909 
	C125.014130,380.610107 125.828644,378.258484 128.055313,376.558716 
	C131.259247,374.113037 134.908325,373.767273 138.333588,375.913696 
	C142.322723,378.413513 143.316086,382.447388 142.572983,386.843292 
	C142.276276,388.598480 141.260193,390.234955 140.552292,391.917358 
	C136.512421,401.518707 138.667068,408.444244 147.481812,414.148895 
	C159.931992,422.206238 173.585892,427.344116 187.956451,430.671204 
	C210.306549,435.845673 233.216202,437.882172 255.640167,442.663452 
	C270.062073,445.738525 284.045502,449.791382 295.939606,459.098389 
	C300.837677,462.931091 304.568298,468.491852 305.829407,474.624908 
	C305.050110,475.326294 304.577148,474.570007 304.231140,474.150940 
	C293.679352,461.370941 278.932953,457.600342 263.557831,455.375702 
	C247.546783,453.059113 231.385086,452.913971 215.250061,452.221222 
	C190.431839,451.155609 165.737808,448.998596 142.601410,437.525330 
M135.217850,295.075500 
	C135.683868,297.799835 135.683868,297.799835 138.228058,298.431732 
	C137.357117,293.040802 137.447052,292.482422 140.856674,287.889252 
	C145.063461,282.222198 150.511292,277.835907 156.039108,273.566559 
	C160.160278,270.383606 163.492218,266.671936 165.040726,261.528381 
	C158.275101,269.821014 146.953445,271.178772 139.119415,277.963654 
	C140.481064,279.472412 142.346542,277.997223 143.065491,280.077698 
	C139.965134,283.075653 139.395020,288.373627 134.254425,289.770142 
	C134.615585,291.475220 134.922562,292.924438 135.217850,295.075500 
M166.928909,273.647675 
	C167.517639,277.982788 165.644730,281.597382 163.881226,285.379211 
	C162.220520,288.940552 161.514099,292.886902 161.317978,297.276245 
	C164.556946,291.837372 164.490402,284.699249 171.414719,281.748444 
	C170.249252,279.861816 170.393219,277.234161 170.615143,274.703644 
	C169.506638,273.916351 168.112534,275.077820 166.928909,273.647675 
M150.661469,253.045593 
	C150.424896,254.304886 149.790863,255.715775 151.419785,256.485168 
	C152.633286,257.058380 153.641525,256.272552 154.549683,255.577682 
	C156.694244,253.936752 158.045334,251.700287 159.098297,249.263779 
	C159.567856,248.177200 159.948349,247.028687 158.865845,246.107193 
	C157.722443,245.133896 156.408600,245.284714 155.190933,245.969559 
	C152.706482,247.366913 151.793427,249.855316 150.661469,253.045593 
M145.365753,251.441513 
	C146.430588,249.016220 147.984207,246.684891 147.122879,243.741913 
	C143.306458,244.918884 143.306458,244.918884 141.054382,247.999222 
	C142.395630,249.023132 144.177002,249.657883 145.365753,251.441513 
z"/>
<path fill="#000000" opacity="1.000000" stroke="none" 
	d="
M289.323669,361.214935 
	C307.786102,350.699310 322.348572,337.027313 330.403900,317.168182 
	C320.182098,326.602081 309.900391,335.793060 296.023010,341.785492 
	C297.328735,336.418396 301.929077,334.390259 302.507477,330.030945 
	C300.156128,328.965851 298.915955,330.685883 297.513184,331.622223 
	C289.310211,337.097473 280.608337,341.599518 271.484161,345.327332 
	C269.336090,346.204956 267.470123,346.528229 265.442535,344.967285 
	C255.352905,337.199707 244.234375,331.218018 232.542862,326.254059 
	C232.092163,326.062683 231.655258,325.838806 231.534393,324.545807 
	C236.375641,323.925873 241.262207,323.545685 246.049545,322.640594 
	C259.854675,320.030762 272.560272,314.809021 283.200623,305.433685 
	C298.151642,292.260254 298.937195,277.779358 285.816986,262.759949 
	C285.098389,261.937347 283.878693,261.352600 284.239899,259.332886 
	C295.242493,262.484802 301.428619,270.166992 304.941681,280.318481 
	C308.392639,290.290558 306.799927,300.216736 303.262726,309.804657 
	C306.369537,311.659546 308.234833,309.788574 310.087555,308.628845 
	C321.235962,301.649994 329.146729,291.680023 333.508972,279.556244 
	C346.701721,242.890411 342.937256,208.253342 319.103302,176.698471 
	C312.763947,168.305481 303.951660,162.883423 294.304810,159.037827 
	C294.595551,157.440155 295.555420,157.718491 296.273621,157.863525 
	C330.602722,164.796814 352.936829,187.725662 359.350769,222.366211 
	C361.540894,234.194717 362.567383,246.081558 362.373322,258.100525 
	C362.343414,259.953583 361.612885,262.066071 363.795837,264.194427 
	C368.240601,252.847885 368.437134,241.080902 370.202942,229.141922 
	C373.055237,232.495804 372.590515,236.244858 373.011383,239.509888 
	C379.396088,289.041504 361.644592,335.325775 313.771606,364.743500 
	C308.816956,367.788086 303.494415,370.229309 298.390167,373.037018 
	C295.781647,374.471893 293.783386,374.255188 292.045715,371.629333 
	C290.857666,369.833984 289.400848,368.194275 287.921051,366.619537 
	C285.717468,364.274567 286.043213,362.594177 289.323669,361.214935 
z"/>
<path fill="#000000" opacity="1.000000" stroke="none" 
	d="
M487.093933,282.924194 
	C493.427673,295.431824 501.584625,305.553467 515.006042,310.706818 
	C509.523804,288.595398 511.035614,269.754089 535.000427,258.688232 
	C535.358459,261.572388 533.747864,262.494507 532.785034,263.629456 
	C520.133118,278.542694 521.477234,293.847748 536.723083,306.133270 
	C550.226868,317.015045 565.728821,322.796051 583.032593,323.854523 
	C584.712830,323.957275 586.747742,323.226227 588.190125,325.425201 
	C583.189697,327.818054 578.277527,330.138153 573.392395,332.513916 
	C566.925598,335.658813 560.874451,339.531006 555.239380,343.943756 
	C552.135559,346.374329 549.552979,346.389679 546.135376,344.786865 
	C537.380493,340.680908 528.619446,336.634613 520.715027,330.975403 
	C519.798096,330.318939 518.891602,329.456879 517.172791,329.904999 
	C516.761414,334.451782 522.070862,336.263885 522.505127,341.271057 
	C515.118225,338.533478 509.299530,334.136475 503.432404,329.687500 
	C497.471893,325.167725 492.715118,319.403778 486.488831,313.888733 
	C495.660950,337.025818 512.505249,351.783264 532.973511,363.137299 
	C531.213440,367.349884 528.030640,369.919861 525.653931,373.060150 
	C524.169556,375.021454 522.216492,373.707306 520.654175,372.947998 
	C480.643951,353.501495 453.734894,323.824951 446.495575,278.538177 
	C443.886810,262.218750 444.804413,246.110046 447.666168,229.987717 
	C447.771667,229.393173 448.026886,228.825195 448.594025,228.246506 
	C450.366516,239.941681 451.025391,251.779785 454.873566,263.654633 
	C457.438751,261.511719 456.656036,259.216644 456.651428,257.274475 
	C456.614258,241.565842 457.961395,226.033859 462.704956,210.973267 
	C472.258972,180.639603 493.447235,163.703308 524.207947,157.911194 
	C524.323303,157.889465 524.476624,158.069870 524.617554,158.158844 
	C525.096375,159.046951 524.361389,159.339264 523.813354,159.559280 
	C503.757996,167.610947 492.157074,183.354248 485.155823,202.893784 
	C475.585724,229.602539 475.227661,256.271912 487.093933,282.924194 
z"/>
<path fill="#000000" opacity="1.000000" stroke="none" 
	d="
M351.536377,478.499817 
	C366.678864,498.163605 379.297089,518.808960 386.368073,542.445740 
	C393.337891,565.744507 394.894897,589.401123 390.749542,613.399902 
	C389.849609,618.609863 388.993408,623.827393 387.951965,630.023865 
	C385.994476,627.413025 386.652039,625.266541 386.714447,623.381958 
	C387.679535,594.244446 381.199524,566.933594 366.513489,541.708801 
	C355.115173,522.130981 340.141418,505.385345 324.151489,489.517059 
	C318.179077,483.590088 312.410919,477.647247 311.116364,468.832855 
	C309.630859,458.718353 312.906067,450.306488 320.402924,442.607513 
	C331.575195,454.143494 341.525055,466.110107 351.536377,478.499817 
z"/>
<path fill="#000000" opacity="1.000000" stroke="none" 
	d="
M433.912415,595.801514 
	C432.253265,606.820496 432.335022,617.522522 431.688904,628.220642 
	C429.101929,618.920166 427.414948,609.566650 426.640411,600.018127 
	C422.838837,553.152527 439.849426,513.443115 468.364716,477.592529 
	C476.452423,467.424316 484.987915,457.651428 493.578705,447.918518 
	C495.100861,446.194000 496.643188,444.487274 498.125610,442.828857 
	C509.679718,452.289276 512.236084,470.846466 501.536011,482.429901 
	C492.279602,492.450500 482.591339,502.092163 473.680267,512.407837 
	C452.948975,536.406860 438.298218,563.443970 433.912415,595.801514 
z"/>
<path fill="#000000" opacity="1.000000" stroke="none" 
	d="
M584.614685,335.478271 
	C591.005310,332.477478 597.356384,330.503235 603.804199,328.857269 
	C605.822876,328.341980 608.014404,327.706696 609.519958,330.263000 
	C615.314575,340.102051 625.127258,343.758759 635.314636,346.759613 
	C640.149902,348.183929 645.021790,349.483887 650.205994,350.932068 
	C648.544067,352.941650 646.979065,352.163727 645.614197,352.161255 
	C604.558167,352.087128 568.439819,364.763031 538.998840,394.036591 
	C523.835327,409.113892 514.829651,427.670258 510.334534,448.485260 
	C510.203949,449.089996 509.990509,449.676849 509.414520,450.227325 
	C507.585815,442.186707 508.473175,434.191925 510.191681,426.341125 
	C519.543274,383.619385 545.085876,354.034454 584.614685,335.478271 
z"/>
<path fill="#000000" opacity="1.000000" stroke="none" 
	d="
M308.417908,423.796997 
	C310.722076,432.623871 310.602570,441.131622 310.104370,450.504730 
	C289.605957,378.721588 237.137054,354.266754 169.405884,351.328888 
	C169.984802,349.772797 171.836487,349.975311 173.339294,349.623444 
	C180.799469,347.876801 188.127319,345.739594 195.163040,342.654480 
	C200.623352,340.260101 205.450256,337.012512 208.468292,331.782593 
	C210.215103,328.755554 212.444412,328.063080 215.506378,328.928467 
	C254.364761,339.911011 282.884399,363.288330 300.404510,399.819336 
	C304.011810,407.340881 306.855988,415.133850 308.417908,423.796997 
z"/>
<path fill="#000000" opacity="1.000000" stroke="none" 
	d="
M398.044983,439.401062 
	C405.090973,439.558990 411.750702,439.597015 418.410400,439.633148 
	C419.915955,439.641327 421.662323,439.851746 422.718567,438.747223 
	C428.646515,432.548035 436.170258,435.623657 443.059906,435.109100 
	C444.416595,435.007782 445.691895,435.651489 446.432770,436.911194 
	C450.632751,444.052399 454.809753,451.207184 459.593079,459.379974 
	C425.885223,459.379974 393.314240,459.379974 359.569305,459.379974 
	C371.484375,437.824249 383.474365,417.153961 396.015717,396.176392 
	C400.999146,402.027283 403.840759,408.211212 406.954620,414.207855 
	C408.004944,416.230591 406.702179,418.063690 405.688416,419.795044 
	C402.998169,424.389740 400.238892,428.945557 397.634460,433.588287 
	C396.620850,435.395172 395.079834,437.401917 398.044983,439.401062 
z"/>
<path fill="#000000" opacity="1.000000" stroke="none" 
	d="
M416.103363,378.827881 
	C410.922058,372.749695 411.400024,367.259735 415.926605,361.241760 
	C419.375488,356.656647 421.878387,351.359985 425.464233,345.252136 
	C442.437378,374.540192 458.841125,402.845734 475.744995,432.014282 
	C450.565063,432.014282 426.728302,432.014282 402.116577,432.014282 
	C404.994995,425.000427 408.630402,419.150482 412.587524,413.500153 
	C413.529510,412.155121 415.352661,412.574524 416.819550,412.567535 
	C424.093597,412.532867 431.367889,412.551758 439.014038,411.746948 
	C435.546051,402.698975 430.852936,395.019562 426.345490,387.659515 
	C424.313141,386.781769 423.873260,389.186890 421.875610,388.591797 
	C420.155975,385.680023 418.224701,382.409851 416.103363,378.827881 
z"/>
<path fill="#000000" opacity="1.000000" stroke="none" 
	d="
M388.543762,394.479919 
	C386.283508,398.398254 384.136383,401.965149 382.147644,405.618256 
	C380.896790,407.915924 378.338715,410.165192 381.917206,412.855682 
	C383.170380,413.797882 381.936493,415.358429 381.302490,416.473572 
	C379.657898,419.366028 377.446564,422.029388 376.310486,425.098480 
	C373.907776,431.589020 369.378326,433.021423 363.016388,432.481537 
	C356.950470,431.966797 350.806549,432.370575 343.270721,432.370575 
	C360.257599,402.947479 376.574432,374.684967 393.573303,345.241089 
	C406.128540,366.915924 418.053650,387.502899 430.627594,409.210052 
	C422.352325,409.210052 415.305084,409.339081 408.268066,409.127625 
	C406.280090,409.067871 405.678345,406.771027 404.656677,405.291962 
	C400.808685,399.721466 398.909790,392.943176 394.127594,387.739075 
	C390.838501,388.904205 390.237762,391.926300 388.543762,394.479919 
z"/>
<path fill="#000000" opacity="1.000000" stroke="none" 
	d="
M614.343384,390.639954 
	C602.104126,394.508820 590.131958,397.989441 578.304077,401.905731 
	C550.579590,411.085449 528.907532,427.639557 515.574402,454.163727 
	C514.923706,455.458252 514.436523,456.976715 512.376282,457.857513 
	C512.634155,451.698120 514.212463,446.084686 516.216553,440.653412 
	C525.263123,416.137207 542.117798,398.304810 564.379211,385.278992 
	C583.228638,374.249573 603.679321,367.359772 624.846130,362.421631 
	C629.714783,361.285767 630.845642,362.297974 630.184204,367.394775 
	C628.855957,377.629639 623.891479,385.486542 614.343384,390.639954 
z"/>
<path fill="#000000" opacity="1.000000" stroke="none" 
	d="
M193.864777,380.974609 
	C190.538345,376.316833 189.661011,371.205750 188.954422,366.104614 
	C188.602310,363.562592 189.252411,361.196533 192.768661,362.063568 
	C224.413467,369.866394 254.777527,380.378937 278.974792,403.598724 
	C294.130829,418.142548 303.019897,436.084167 307.087189,456.544373 
	C307.195160,457.087494 306.912445,457.708282 306.650574,459.231171 
	C303.070923,453.247681 300.094849,447.933228 296.799316,442.824890 
	C284.262299,423.391510 266.143799,411.227966 244.815353,403.360809 
	C234.202271,399.446045 223.416962,396.046021 212.459427,393.230072 
	C204.960892,391.303040 198.499176,387.883209 193.864777,380.974609 
z"/>
<path fill="#000000" opacity="1.000000" stroke="none" 
	d="
M322.929810,498.091400 
	C338.287933,515.942871 352.722656,533.984192 362.470886,555.298828 
	C370.917877,573.768127 374.997833,593.107788 374.227081,613.381592 
	C373.988342,619.661438 372.920349,625.914734 372.102234,632.163208 
	C371.945129,633.363342 371.870575,634.845398 369.858429,635.822998 
	C369.683167,628.293579 368.835663,621.118164 367.845825,613.947388 
	C364.294556,588.220398 353.835175,565.628418 337.951813,545.250244 
	C330.044128,535.104858 320.768066,526.229126 312.476593,516.459229 
	C304.768402,507.376648 302.598663,497.095337 306.216431,485.685181 
	C306.510223,484.758606 306.870697,483.766266 308.724579,483.115021 
	C313.770538,487.281311 317.864624,492.927124 322.929810,498.091400 
z"/>
<path fill="#000000" opacity="1.000000" stroke="none" 
	d="
M451.347443,613.206116 
	C450.507690,621.008728 449.696198,628.372192 448.884674,635.735657 
	C445.745544,624.794739 444.555237,613.708801 445.060547,602.457031 
	C446.903870,561.411377 468.577637,529.923096 494.344971,500.434692 
	C499.568481,494.456909 504.962006,488.627747 510.836273,482.109680 
	C515.711792,490.821045 515.769165,498.823547 512.445312,507.067627 
	C509.895752,513.391296 505.384369,518.282715 500.755127,523.088257 
	C487.209381,537.150024 474.648834,551.956238 465.486237,569.365356 
	C458.294128,583.030640 453.822815,597.566223 451.347443,613.206116 
z"/>
<path fill="#000000" opacity="1.000000" stroke="none" 
	d="
M343.517090,566.597778 
	C356.890137,591.559570 360.140930,617.149231 351.622681,644.341736 
	C349.624329,643.095215 349.941681,641.584412 349.937958,640.394592 
	C349.837128,608.023865 336.641937,580.915833 316.660034,556.380371 
	C310.041016,548.253052 303.948334,539.618591 302.182007,528.874878 
	C301.407684,524.165161 300.801086,519.375916 303.603699,513.485596 
	C318.462646,530.555237 332.627716,547.066467 343.517090,566.597778 
z"/>
<path fill="#000000" opacity="1.000000" stroke="none" 
	d="
M462.656769,614.026123 
	C463.217072,589.331543 472.804810,568.466309 486.557098,549.137634 
	C494.572144,537.872681 503.730621,527.525208 512.439392,516.817261 
	C513.238464,515.834717 514.367798,515.120789 515.900574,513.803772 
	C518.142517,519.620728 517.750549,524.983826 516.688782,530.256409 
	C514.655334,540.353943 508.646179,548.413147 502.574280,556.358582 
	C491.839783,570.405334 481.577606,584.696411 475.905548,601.727783 
	C471.730469,614.264221 469.218445,627.056396 469.259338,640.309631 
	C469.263855,641.769287 469.655670,643.306091 468.804565,644.702759 
	C465.721893,641.870483 462.833923,627.647400 462.656769,614.026123 
z"/>
<path fill="#000000" opacity="1.000000" stroke="none" 
	d="
M257.932739,418.925781 
	C273.979004,427.164764 288.516785,436.709137 298.572998,451.732208 
	C301.102661,455.511353 303.870392,459.239227 305.049683,464.420807 
	C302.038879,463.511353 301.193085,461.097961 299.744781,459.523071 
	C286.799042,445.446106 269.601196,439.121338 252.143204,433.412781 
	C240.458359,429.591949 228.423920,426.992004 216.435699,424.238251 
	C205.343719,421.690460 197.527161,411.422607 197.846191,400.214050 
	C218.661819,403.742584 238.490005,410.055359 257.932739,418.925781 
z"/>
<path fill="#000000" opacity="1.000000" stroke="none" 
	d="
M523.908630,454.903442 
	C520.458679,457.766602 517.266479,460.384918 514.565369,462.600372 
	C514.556396,460.270691 516.789307,457.589508 518.526062,454.839478 
	C528.328918,439.317688 542.330688,428.598389 558.448425,420.365356 
	C576.946228,410.916565 596.719543,405.256409 616.890259,400.807037 
	C618.311218,400.493591 619.823975,400.596375 621.285400,400.506134 
	C622.027405,411.067322 613.777527,421.750488 602.437012,424.293243 
	C585.075989,428.185913 567.815247,432.334045 551.270813,439.027710 
	C541.506592,442.978180 532.202209,447.716034 523.908630,454.903442 
z"/>
<path fill="#000000" opacity="1.000000" stroke="none" 
	d="
M308.154358,396.500153 
	C303.978882,391.768555 302.247467,385.970734 298.376404,380.281250 
	C333.604401,366.130005 359.215820,342.474579 374.362183,306.309692 
	C375.781250,311.783691 374.081726,315.294952 373.205109,318.707825 
	C364.371460,353.097992 345.131927,379.342499 312.710999,395.085693 
	C311.379211,395.732361 309.905945,396.087677 308.154358,396.500153 
z"/>
<path fill="#000000" opacity="1.000000" stroke="none" 
	d="
M511.572906,396.394958 
	C501.450256,393.889526 493.182281,388.278778 485.418427,382.066162 
	C461.994171,363.322021 449.299866,338.301300 443.777802,309.253723 
	C443.665863,308.664917 443.933746,308.003845 444.525482,307.011078 
	C459.611786,341.956848 485.138489,366.051117 520.605286,380.219604 
	C517.407043,386.076752 514.642029,391.140594 511.572906,396.394958 
z"/>
<path fill="#000000" opacity="1.000000" stroke="none" 
	d="
M191.269455,328.537354 
	C193.302261,327.814514 194.961411,327.176392 196.620575,326.538269 
	C194.737427,332.052002 190.673553,335.077118 185.800583,337.146149 
	C178.964172,340.048859 171.615860,340.484894 164.361588,341.252533 
	C160.539307,341.657013 156.762833,342.221313 153.225784,343.708710 
	C144.971985,347.179626 142.039261,356.266907 146.536682,364.056976 
	C149.608673,369.377991 154.354279,372.552399 160.001419,374.554565 
	C161.539825,375.100006 163.122833,375.519623 166.043945,376.412018 
	C160.310364,379.211975 155.371353,378.839935 150.730530,378.097900 
	C140.136887,376.404114 132.995148,368.056396 132.369690,357.462128 
	C131.681839,345.810699 137.384781,337.013031 148.010620,333.703491 
	C155.362808,331.413513 163.010544,330.849182 170.649673,330.741882 
	C177.481186,330.645905 184.219391,330.021484 191.269455,328.537354 
z"/>
<path fill="#000000" opacity="1.000000" stroke="none" 
	d="
M664.257812,360.103027 
	C669.524292,350.021271 666.114502,342.396973 655.288147,340.067566 
	C649.305298,338.780243 643.123962,338.436707 637.110291,337.265991 
	C630.702271,336.018585 624.982788,333.443451 621.226135,326.078247 
	C634.818359,331.556671 648.425049,328.702454 661.292603,331.757935 
	C673.134705,334.569885 678.116394,341.635712 677.326172,354.415466 
	C676.803772,362.863464 669.041870,370.044434 659.014709,371.197571 
	C656.108154,371.531799 653.127686,371.651978 649.982910,369.023499 
	C655.637268,367.125732 660.505676,364.752136 664.257812,360.103027 
z"/>
<path fill="#000000" opacity="1.000000" stroke="none" 
	d="
M281.981995,492.823608 
	C280.770569,493.918335 280.005981,495.124969 278.115265,495.060272 
	C278.042999,488.837982 280.504822,482.348419 276.451172,476.283539 
	C271.882721,478.322052 271.654755,483.908447 267.301910,485.818115 
	C265.043396,483.148132 266.634125,479.977448 265.878235,477.241241 
	C265.486786,475.824402 265.686859,474.070374 263.823792,473.615570 
	C262.221161,473.224396 261.440308,474.545837 260.678619,475.604614 
	C259.598969,477.105347 258.575409,478.606842 256.033386,478.719849 
	C255.004868,473.462463 257.049805,467.770477 253.249542,462.699127 
	C258.479095,460.975739 262.923004,461.495239 267.260986,462.045410 
	C271.540375,462.588135 275.653076,464.037689 279.817383,465.214996 
	C287.953400,467.515137 289.719696,470.266479 288.351135,480.755371 
	C287.745667,485.395966 285.082733,489.056030 281.981995,492.823608 
z"/>
<path fill="#000000" opacity="1.000000" stroke="none" 
	d="
M556.573730,473.815247 
	C550.910461,476.273071 553.444397,481.464233 552.290466,485.691956 
	C549.088989,485.043304 548.199829,482.186462 546.681641,479.965393 
	C545.795044,478.668335 545.432068,476.493011 543.248108,476.987000 
	C541.381714,477.409180 540.842102,479.352142 540.619141,480.920807 
	C540.080933,484.709167 539.956787,488.533356 541.077515,492.296356 
	C541.295288,493.027527 541.108765,493.879089 541.108765,495.931519 
	C535.157593,491.410492 531.595581,486.528992 530.763794,480.086853 
	C529.479370,470.138428 530.915039,468.016571 540.520447,464.802551 
	C548.445740,462.150665 556.541016,460.692535 565.591614,462.244629 
	C563.264038,467.669952 562.923584,473.064056 563.594543,478.730835 
	C559.738892,478.912140 559.042908,475.404541 556.573730,473.815247 
z"/>
<path fill="#000000" opacity="1.000000" stroke="none" 
	d="
M639.379517,463.105713 
	C633.914001,462.146912 628.819702,461.496796 624.141541,458.255890 
	C646.841919,459.571533 666.042847,450.975800 683.722839,437.781891 
	C684.318054,447.532990 664.052490,464.758545 639.379517,463.105713 
z"/>
<path fill="#000000" opacity="1.000000" stroke="none" 
	d="
M609.229370,145.261215 
	C611.151672,144.438751 612.251282,144.813507 612.240906,146.681595 
	C612.190979,155.668747 612.088196,164.655731 611.947876,173.641876 
	C611.942322,173.997299 611.364685,174.343781 610.833130,174.943115 
	C607.330322,172.464355 609.176392,168.909836 608.804565,165.958771 
	C608.462891,163.246750 609.533264,160.109268 606.242981,158.455078 
	C603.264038,156.957367 600.800049,154.139801 596.699280,156.413712 
	C592.431213,158.780396 589.202087,161.202515 590.263428,166.769928 
	C590.630615,168.696045 590.325256,170.758179 590.259827,172.755981 
	C590.221130,173.937286 590.106445,175.262100 588.484924,175.212708 
	C587.271606,175.175735 586.844238,174.168442 586.841919,173.094971 
	C586.821899,163.679337 586.830322,154.263657 586.830322,143.197067 
	C594.612915,148.516739 601.605652,152.805984 609.229370,145.261215 
M594.662292,153.152832 
	C594.299866,150.845200 592.341492,150.945999 590.526794,150.018753 
	C590.441162,151.332550 590.336365,152.141525 590.352478,152.948074 
	C590.365234,153.584961 590.526672,154.218857 590.612122,154.787628 
	C592.336182,155.399414 593.260315,154.290955 594.662292,153.152832 
z"/>
<path fill="#000000" opacity="1.000000" stroke="none" 
	d="
M202.577393,488.565308 
	C204.805634,487.814636 205.734741,488.511566 205.376526,490.572144 
	C205.295425,491.038727 205.039429,491.558655 204.700775,491.884338 
	C197.653137,498.662506 199.824783,505.294891 204.880707,511.986938 
	C205.804672,513.209900 207.317398,515.047668 205.095566,516.191223 
	C202.941666,517.299744 202.481689,514.892212 201.623322,513.614136 
	C199.907715,511.059631 198.881027,508.029175 196.180923,505.405579 
	C194.429138,508.055969 192.921616,510.380768 191.365112,512.672302 
	C190.638733,513.741821 189.986603,515.171326 188.276199,514.329834 
	C186.407257,513.410278 187.246582,511.813049 188.037750,510.999451 
	C194.892227,503.950684 194.043793,497.024292 188.100388,489.953186 
	C187.335922,489.043701 186.326828,487.545837 187.899063,486.474487 
	C189.799622,485.179413 190.437302,487.083191 191.321487,488.178345 
	C193.168686,490.466278 193.709122,493.716827 196.606659,495.389679 
	C199.770264,494.273834 200.279892,490.858582 202.577393,488.565308 
z"/>
<path fill="#000000" opacity="1.000000" stroke="none" 
	d="
M157.685989,497.427368 
	C157.991837,493.429871 156.957657,489.736572 158.437363,486.298187 
	C161.295853,485.715729 161.249207,487.675934 161.265610,489.291748 
	C161.336472,496.278412 161.329758,503.266205 161.300446,510.253326 
	C161.295776,511.367767 161.434204,512.731567 159.923737,513.111206 
	C158.717316,513.414490 157.853119,512.703247 157.890259,511.579346 
	C158.115051,504.775482 151.986465,504.625397 148.227097,501.369476 
	C146.205460,505.298309 148.709549,509.581573 144.962418,512.534973 
	C143.117386,503.855560 143.853149,495.164612 143.723526,486.389618 
	C147.747025,486.417877 147.516113,488.736176 147.216660,490.300446 
	C146.122040,496.018494 149.917419,498.314026 153.937256,500.499939 
	C156.851074,502.084412 157.880966,500.778717 157.685989,497.427368 
z"/>
<path fill="#000000" opacity="1.000000" stroke="none" 
	d="
M180.003113,510.402802 
	C179.957413,508.640015 179.956223,507.308258 179.963272,505.976593 
	C180.008133,497.489899 178.070847,495.170685 168.834351,492.966614 
	C167.118759,499.833405 169.752625,507.226044 166.166412,513.936523 
	C164.211746,504.819580 164.737015,495.674103 164.802567,485.595398 
	C171.704193,488.599762 177.362305,491.916046 182.554245,495.966156 
	C184.195114,497.246155 184.637848,509.636475 183.380203,511.543121 
	C181.816071,513.914551 180.785233,512.850952 180.003113,510.402802 
z"/>
<path fill="#000000" opacity="1.000000" stroke="none" 
	d="
M633.682007,173.889603 
	C632.006348,171.776138 632.720276,169.557495 632.700989,167.455704 
	C632.625061,159.201645 630.313416,155.878311 621.693787,152.335449 
	C620.802612,157.654510 621.449829,162.940598 621.203796,168.183640 
	C621.132080,169.711182 621.732300,172.124298 619.330017,172.052536 
	C616.881836,171.979385 617.731934,169.526978 617.714600,168.058395 
	C617.622803,160.284302 617.671509,152.508530 617.671509,143.366974 
	C624.710205,148.045151 630.416260,152.458740 635.205566,157.837479 
	C637.535767,160.454483 636.221924,171.764847 633.682007,173.889603 
z"/>
<path fill="#000000" opacity="1.000000" stroke="none" 
	d="
M101.253906,443.522034 
	C97.876320,442.935669 95.829987,446.774994 91.612282,445.585205 
	C96.512138,437.948181 100.068947,430.223846 95.765053,420.733459 
	C103.756569,426.440491 108.129829,441.935333 105.583885,454.317505 
	C102.781754,451.039154 103.387100,446.859619 101.253906,443.522034 
z"/>
<path fill="#000000" opacity="1.000000" stroke="none" 
	d="
M246.834412,312.623962 
	C254.727753,309.396240 256.960663,302.313110 259.219452,295.183289 
	C263.089417,297.291138 261.874420,300.733337 262.692535,303.627808 
	C266.645447,304.373444 269.417816,300.368073 274.137817,300.735748 
	C266.145020,310.820435 255.986954,314.308685 244.369492,315.111694 
	C244.167358,313.193848 245.736557,313.366760 246.834412,312.623962 
z"/>
<path fill="#000000" opacity="1.000000" stroke="none" 
	d="
M314.054321,273.945801 
	C314.140991,264.735443 312.044128,256.420990 309.349640,248.076248 
	C315.929199,251.494904 317.902496,257.815491 318.971588,264.338043 
	C320.345581,272.720947 318.449524,280.489502 312.642242,287.117279 
	C313.112030,282.885315 313.581787,278.653381 314.054321,273.945801 
z"/>
<path fill="#000000" opacity="1.000000" stroke="none" 
	d="
M501.194275,278.477692 
	C497.814545,265.388000 501.636322,251.849655 510.004944,248.234146 
	C508.227844,254.947601 505.809570,261.117218 505.305450,267.725586 
	C504.812836,274.183441 505.222778,280.568268 506.804138,287.721649 
	C502.997406,285.200134 502.452942,281.860565 501.194275,278.477692 
z"/>
<path fill="#000000" opacity="1.000000" stroke="none" 
	d="
M223.974274,491.591034 
	C224.274460,489.039215 223.381134,486.510498 226.073257,484.806732 
	C229.170258,487.082825 227.928772,490.322784 227.969406,493.011627 
	C228.027771,496.873718 228.162781,500.271149 232.600510,501.849274 
	C233.901123,502.311798 236.314346,502.965912 235.352814,505.196045 
	C234.352692,507.515717 232.567001,505.853394 231.089508,505.423523 
	C230.469452,505.243103 229.818375,505.169250 229.390808,505.087189 
	C228.181763,505.551910 228.267105,506.453064 228.082260,507.242340 
	C227.678040,508.968292 228.813828,511.957092 225.807404,511.759094 
	C223.495132,511.606812 223.931854,508.923859 224.039185,507.217468 
	C224.278107,503.419861 223.555298,500.332092 219.590149,498.757812 
	C218.541611,498.341522 217.486969,497.509216 217.900681,496.073975 
	C218.338181,494.556213 219.664032,494.643219 220.771606,494.939331 
	C223.504761,495.670074 223.918518,494.081299 223.974274,491.591034 
z"/>
<path fill="#000000" opacity="1.000000" stroke="none" 
	d="
M474.584778,175.297821 
	C473.930664,176.417877 473.726776,177.493347 472.560455,177.740875 
	C469.668182,165.848572 488.039429,149.111938 502.984528,151.386139 
	C491.334717,157.575577 481.063934,164.052414 474.584778,175.297821 
z"/>
<path fill="#000000" opacity="1.000000" stroke="none" 
	d="
M68.068451,349.530334 
	C71.044701,341.898071 75.326706,335.920227 82.798683,332.619080 
	C79.134033,338.291016 75.507446,343.862915 73.482918,350.366821 
	C71.510704,356.702667 70.887047,363.255035 69.733696,370.866364 
	C65.486565,363.407318 66.275391,356.696014 68.068451,349.530334 
z"/>
<path fill="#000000" opacity="1.000000" stroke="none" 
	d="
M647.942017,172.387741 
	C648.182678,166.292023 647.671021,161.014084 641.599426,158.183228 
	C641.187683,157.991257 641.102600,157.098557 640.773376,156.311356 
	C641.544189,155.932785 642.177246,155.328445 642.655823,155.432755 
	C646.896179,156.356812 647.953613,154.280823 647.718140,150.524048 
	C647.625488,149.045944 647.032532,146.632355 649.501465,146.642197 
	C651.948853,146.651947 651.288940,149.044281 651.298828,150.545685 
	C651.332397,155.648926 650.255798,161.154022 656.980225,163.288269 
	C657.779541,163.541946 658.285156,164.415268 658.014282,165.319504 
	C657.681580,166.430420 656.805542,166.769958 655.669189,166.597885 
	C654.552917,166.428864 653.516541,165.612610 652.217896,166.189240 
	C650.755127,167.644714 651.598694,169.605087 651.278076,171.333572 
	C650.904114,173.350464 650.206299,174.652313 647.942017,172.387741 
z"/>
<path fill="#000000" opacity="1.000000" stroke="none" 
	d="
M688.484131,166.277557 
	C686.441833,167.233154 685.162476,165.298645 683.342957,165.669662 
	C681.571533,167.168472 682.617065,169.321960 682.307373,171.179840 
	C682.108948,172.370193 681.995605,173.661652 680.460388,173.622177 
	C678.940308,173.583069 678.798340,172.278610 678.706970,171.087357 
	C678.681641,170.757339 678.630432,170.417328 678.679504,170.095367 
	C679.480164,164.838852 677.992981,160.753799 672.872009,158.415085 
	C672.386719,158.193451 672.153015,157.420792 671.799011,156.898880 
	C673.610046,153.729462 675.722961,156.814392 677.520203,156.340820 
	C680.457336,153.758011 676.447510,148.475998 681.099182,146.210266 
	C683.036011,148.876999 682.341248,151.454849 682.261719,153.828018 
	C682.137146,157.546219 682.464294,160.677994 686.549194,162.291931 
	C687.912842,162.830704 689.714844,163.815933 688.484131,166.277557 
z"/>
<path fill="#000000" opacity="1.000000" stroke="none" 
	d="
M155.153381,390.757385 
	C158.543396,395.638184 157.789932,399.898743 153.644272,401.041595 
	C151.253418,401.700714 149.002304,401.341339 147.464005,399.141846 
	C145.882874,396.881073 145.787476,394.442657 147.395462,392.214386 
	C149.297470,389.578644 151.863846,389.015778 155.153381,390.757385 
z"/>
<path fill="#000000" opacity="1.000000" stroke="none" 
	d="
M662.039185,151.438477 
	C662.213623,149.413132 661.801392,147.593155 663.752502,146.715302 
	C666.443237,150.354691 666.758911,169.351456 663.292908,175.103363 
	C660.948364,166.595352 662.600281,159.126526 662.039185,151.438477 
z"/>
<path fill="#000000" opacity="1.000000" stroke="none" 
	d="
M694.863403,372.507660 
	C695.570923,375.716644 694.558472,377.886505 691.927490,378.941040 
	C689.847229,379.774841 687.672791,379.675629 686.003845,377.770813 
	C684.546204,376.107208 684.313354,374.161804 685.054321,372.184143 
	C686.696472,367.800995 690.932190,367.798035 694.863403,372.507660 
z"/>
<path fill="#000000" opacity="1.000000" stroke="none" 
	d="
M210.803802,513.182495 
	C209.148270,513.172241 208.733704,512.315125 208.732727,511.231445 
	C208.725861,503.583893 208.733032,495.936279 208.780563,488.288940 
	C208.785690,487.462769 209.104401,486.657440 210.076233,486.403351 
	C212.696793,488.468536 213.483597,507.241699 210.803802,513.182495 
z"/>
<path fill="#000000" opacity="1.000000" stroke="none" 
	d="
M157.790421,407.289703 
	C157.056564,403.753296 157.685181,401.299500 161.379257,400.745972 
	C164.232101,400.318451 166.259888,401.485962 167.044952,404.267181 
	C167.698715,406.583252 166.883957,408.597229 164.710861,409.679626 
	C161.929199,411.065216 159.618149,410.217590 157.790421,407.289703 
z"/>
<path fill="#000000" opacity="1.000000" stroke="none" 
	d="
M694.235168,357.736816 
	C696.841614,360.201080 696.923218,362.596924 694.754639,364.872772 
	C693.294250,366.405426 691.389404,367.102020 689.453125,365.705780 
	C687.339844,364.181824 686.652954,361.978302 687.769714,359.617706 
	C689.015869,356.983673 691.176636,356.238464 694.235168,357.736816 
z"/>
<path fill="#000000" opacity="1.000000" stroke="none" 
	d="
M176.458313,407.435486 
	C178.446915,409.999756 178.095978,412.131134 175.838913,413.699036 
	C174.047348,414.943573 172.003845,414.843170 170.420456,413.171112 
	C169.051346,411.725159 168.626511,409.849579 169.781464,408.159180 
	C171.467560,405.691376 173.724213,405.362823 176.458313,407.435486 
z"/>
<path fill="#000000" opacity="1.000000" stroke="none" 
	d="
M686.829102,353.186371 
	C685.221069,350.696411 685.405579,348.701599 687.558350,347.256927 
	C688.890747,346.362732 690.437927,346.555450 691.738770,347.546143 
	C693.249390,348.696655 693.687317,350.347961 692.899597,351.975647 
	C691.640686,354.576874 689.540833,354.888519 686.829102,353.186371 
z"/>
<path fill="#000000" opacity="1.000000" stroke="none" 
	d="
M185.151871,410.102844 
	C186.839386,412.580475 186.130371,414.226654 183.713913,414.762177 
	C182.091232,415.121735 180.790268,414.067902 180.827271,412.253906 
	C180.884125,409.466156 182.517731,409.002625 185.151871,410.102844 
z"/>
<path fill="#000000" opacity="1.000000" stroke="none" 
	d="
M687.317322,340.578278 
	C688.630432,342.958923 687.954468,344.494629 685.748291,344.803589 
	C684.132324,345.029877 682.861511,343.771240 683.078918,342.103394 
	C683.386902,339.739746 685.033630,339.414642 687.317322,340.578278 
z"/>
</svg>